<svg id="Layer_1" data-name="Layer 1" xmlns="http://www.w3.org/2000/svg" viewBox="0 0 1000 872.76"><defs><style>.cls-1{fill:#07142c;}.cls-2{fill:#4a9622;}</style></defs><title>Agricura</title><path class="cls-1" d="M98.69,851.47H39.51l-8.12,19.12H0L52.5,747.91h33l52.67,122.68H106.62ZM88.4,827.29,69.28,781.47,49.79,827.29Z"/><path class="cls-1" d="M262.14,772.63l-25.62,13c-6.14-7.76-15.7-12.09-29.77-12.09-21.47,0-36.44,15-36.44,35.36,0,19.48,15.33,36.26,36.8,36.26,13.17,0,23.64-4.15,30.13-10.28V823H199.89V800.23H263.4v45.46c-.9,1.81-20.21,27.07-56.11,27.07-40.59,0-66.75-30.49-66.75-63.51,0-34.1,28-63.5,66.57-63.5C230.75,745.75,249.87,756.39,262.14,772.63Z"/><path class="cls-1" d="M388.78,793.92c0,17.68-8.66,32.65-21.83,39.69l25.26,37h-36.8L337,840.1H315.35v30.49H285.77V747.91h59.35C370,747.91,388.78,767.22,388.78,793.92Zm-73.43-18.59v37.35h25.44c10.11,0,18.22-8.48,18.22-18.76,0-10.11-8.11-18.59-18-18.59Z"/><path class="cls-1" d="M442.9,870.59H413.31V747.91H442.9Z"/><path class="cls-2" d="M588.13,840.82c-11,18.4-31.39,31.94-57.37,31.94-38.43,0-66.39-28.15-66.39-64.41,0-34.1,28-62.6,66.39-62.6,26.16,0,46.73,12.26,57.73,30.67L563.41,791c-5.77-11.19-17.13-18.58-32.65-18.58-21.47,0-36.44,15.69-36.44,35.9,0,19.48,15,36.62,36.44,36.62,15.16,0,26.34-7.75,32.29-18.58Z"/><path class="cls-2" d="M720.19,807.63c0,40.59-25.62,65.13-59.9,65.13-34.82,0-58.45-24.54-58.45-65.13V747.91h29.59v59.72c0,23.63,10.1,37.7,28.86,37.7,18.4,0,30-14.07,30-37.7V747.91h30Z"/><path class="cls-2" d="M844.49,793.92c0,17.68-8.66,32.65-21.83,39.69l25.26,37H811.11l-18.4-30.49H771.06v30.49H741.47V747.91h59.36C825.73,747.91,844.49,767.22,844.49,793.92Zm-73.43-18.59v37.35H796.5c10.1,0,18.22-8.48,18.22-18.76,0-10.11-8.12-18.59-18-18.59Z"/><path class="cls-2" d="M960.49,851.47H901.31l-8.11,19.12H861.8l52.5-122.68h33L1000,870.59H968.43Zm-10.28-24.18-19.13-45.82L911.6,827.29Z"/><polygon class="cls-1" points="803.55 488.06 500 0 298.09 325.07 438.19 325.07 503.44 216.1 673.52 488.06 803.55 488.06"/><polygon class="cls-2" points="842.92 548.49 911.6 662.04 88.4 662.04 262.38 382.75 466.58 382.75 500 322.32 603.93 488.06 335.64 488.06 298.09 548.49 842.92 548.49"/></svg>