<svg id="Layer_1" data-name="Layer 1" xmlns="http://www.w3.org/2000/svg" viewBox="0 0 1000 127.01"><defs><style>.cls-1{fill:#07142c;}.cls-2{fill:#4a9622;}</style></defs><title>Agricura-logo-slogan</title><path class="cls-1" d="M98.69,105.72H39.51l-8.12,19.12H0L52.5,2.16h33l52.67,122.68H106.62ZM88.4,81.55,69.28,35.72,49.79,81.55Z"/><path class="cls-1" d="M262.14,26.88l-25.62,13c-6.14-7.76-15.7-12.09-29.77-12.09-21.47,0-36.44,15-36.44,35.36,0,19.49,15.33,36.27,36.8,36.27,13.17,0,23.64-4.15,30.13-10.29V77.22H199.89V54.48H263.4V100c-.9,1.8-20.21,27.06-56.11,27.06-40.59,0-66.75-30.49-66.75-63.51,0-34.09,28-63.5,66.57-63.5C230.75,0,249.87,10.64,262.14,26.88Z"/><path class="cls-1" d="M388.78,48.17c0,17.68-8.66,32.65-21.83,39.69l25.26,37h-36.8L337,94.36H315.35v30.48H285.77V2.16h59.35C370,2.16,388.78,21.47,388.78,48.17ZM315.35,29.59V66.93h25.44c10.11,0,18.22-8.48,18.22-18.76,0-10.1-8.11-18.58-18-18.58Z"/><path class="cls-1" d="M442.9,124.84H413.31V2.16H442.9Z"/><path class="cls-2" d="M588.13,95.08c-11,18.4-31.39,31.93-57.37,31.93-38.43,0-66.39-28.15-66.39-64.41,0-34.1,28-62.6,66.39-62.6,26.16,0,46.73,12.27,57.73,30.67L563.41,45.28C557.64,34.1,546.28,26.7,530.76,26.7c-21.47,0-36.44,15.7-36.44,35.9,0,19.49,15,36.63,36.44,36.63,15.16,0,26.34-7.76,32.29-18.59Z"/><path class="cls-2" d="M720.19,61.88c0,40.59-25.62,65.13-59.9,65.13-34.82,0-58.45-24.54-58.45-65.13V2.16h29.59V61.88c0,23.63,10.1,37.71,28.86,37.71,18.4,0,30-14.08,30-37.71V2.16h30Z"/><path class="cls-2" d="M844.49,48.17c0,17.68-8.66,32.65-21.83,39.69l25.26,37H811.11l-18.4-30.48H771.06v30.48H741.47V2.16h59.36C825.73,2.16,844.49,21.47,844.49,48.17ZM771.06,29.59V66.93H796.5c10.1,0,18.22-8.48,18.22-18.76,0-10.1-8.12-18.58-18-18.58Z"/><path class="cls-2" d="M960.49,105.72H901.31l-8.11,19.12H861.8L914.3,2.16h33L1000,124.84H968.43ZM950.21,81.55,931.08,35.72,911.6,81.55Z"/></svg>