<svg id="Calque_1" data-name="Calque 1" xmlns="http://www.w3.org/2000/svg" viewBox="0 0 200.48 195.67"><defs><style>.cls-1{fill:none;stroke:#fff;stroke-miterlimit:10;stroke-width:4px;}.cls-2{fill:#fff;}</style></defs><polyline class="cls-1" points="88.57 175.78 2 193.22 2 5.86 22.67 13.62"/><polyline class="cls-1" points="88.57 175.78 22.67 175.78 22.67 3.28 45.29 14.91"/><polygon class="cls-2" points="88.81 36.61 88.81 177.07 43.56 167.77 43.56 1.99 88.81 36.61"/><path class="cls-2" d="M197.87,109.78c-4.84,1.32-19.39,19.61-43.17,16.08-3.63-.47-4.06,2.67-4.94,6.33s-4.35,26.08-12.62,35.44c-3.57,4-19.38,7.2-36.88,8.73V37.22a13,13,0,0,1,2.83,1.69h0a4.89,4.89,0,0,0,5.19.32,12.64,12.64,0,0,1-.85,4.79v0a26.1,26.1,0,0,1,2.34,8.69c1.23,11.14,10.85,17.6,4.54,19,1.64,2.48,1.46,5.1.52,5.39,2.36,2-2.07,4.23-.66,5.94s1.79,11.22-9.44,8.4c2.17,6.23.38,8.86,7,7.16,10.24-5.93,20-15.33,35.35-9.14,3.2.29,5.72.39,5.72.39s6.88-11.24,21.5-5.71c1.26-13.18-1.64-24.71-5-30.23-1.73-2-2.31-4.36-6.77-.87s-3.49,2.62-5.43,2.71c-.58,1.84-1.93,5.33-4.55,2.33-2,1.25-4.75,4.36-6.3-.87-1.45.68-2.13,1.95-3.63-.48,0,0-6.61-13.66,6.61-16.08s25.77-5.51,28.64,0,11.68,16.08,15.42,20.27S227.84,96.12,197.87,109.78Z" transform="translate(-10.36 0.4)"/></svg>