<?xml version="1.0" encoding="utf-8"?>
<!-- Generator: Adobe Illustrator 23.0.4, SVG Export Plug-In . SVG Version: 6.00 Build 0)  -->
<svg version="1.1" id="Pro_03" xmlns="http://www.w3.org/2000/svg" xmlns:xlink="http://www.w3.org/1999/xlink" x="0px" y="0px"
	 viewBox="0 0 309.2 299.7" style="enable-background:new 0 0 309.2 299.7;" xml:space="preserve">
<style type="text/css">
	.st0{fill:#4A9622;}
	.st1{fill:none;stroke:#4A9622;stroke-width:4;stroke-miterlimit:10;}
</style>
<path class="st0" d="M289.1,168.7c-7.5,2.1-30,30.4-66.8,24.9c-5.6-0.7-6.3,4.1-7.6,9.8s-6.7,40.4-19.5,54.9
	c-5.5,6.2-30,11.1-57.1,13.5V56.4c1.6,0.7,3,1.6,4.4,2.6l0,0c0.4,0.3,4.1,2.8,8,0.5c0,2.8-0.7,6.5-1.3,7.4l0,0
	c2,4.2,3.2,8.8,3.6,13.5c1.9,17.2,16.8,27.2,7,29.4c2.5,3.8,2.3,7.9,0.8,8.3c3.6,3.1-3.2,6.6-1,9.2s2.8,17.4-14.6,13
	c3.4,9.6,0.6,13.7,10.8,11.1c15.9-9.2,31-23.7,54.7-14.1c5,0.4,8.9,0.6,8.9,0.6s10.6-17.4,33.3-8.8c2-20.4-2.5-38.2-7.8-46.8
	c-2.7-3.2-3.6-6.8-10.5-1.3s-5.4,4-8.4,4.2c-0.9,2.9-3,8.2-7,3.6c-3.1,1.9-7.4,6.7-9.8-1.4c-2.2,1.1-3.3,3-5.6-0.7
	c0,0-10.2-21.1,10.2-24.9c20.5-3.8,39.9-8.5,44.3,0s18.1,24.9,23.9,31.4S335.5,147.6,289.1,168.7z"/>
<polyline class="st1" points="136,270.3 2,297.3 2,7.3 34,19.3 "/>
<polyline class="st1" points="136,270.3 34,270.3 34,3.3 69,21.3 "/>
<polygon class="st0" points="136.4,54.9 136.4,272.3 66.3,257.9 66.3,1.3 "/>
</svg>
