<?xml version="1.0" encoding="utf-8"?>
<!-- Generator: Adobe Illustrator 23.0.4, SVG Export Plug-In . SVG Version: 6.00 Build 0)  -->
<svg version="1.1" id="Calque_1" xmlns="http://www.w3.org/2000/svg" xmlns:xlink="http://www.w3.org/1999/xlink" x="0px" y="0px"
	 viewBox="0 0 469.1 195.7" style="enable-background:new 0 0 469.1 195.7;" xml:space="preserve">
<style type="text/css">
	.st0{fill:none;stroke:#5A8DEE;stroke-width:4;stroke-miterlimit:10;}
	.st1{fill:#5A8DEE;}
	.st2{fill:#F19822;}
</style>
<polyline class="st0" points="88.6,175.8 2,193.2 2,5.9 22.7,13.6 "/>
<polyline class="st0" points="88.6,175.8 22.7,175.8 22.7,3.3 45.3,14.9 "/>
<polygon class="st1" points="88.8,36.6 88.8,177.1 43.6,167.8 43.6,2 "/>
<path class="st1" d="M187.5,110.2c-4.8,1.3-19.4,19.6-43.2,16.1c-3.6-0.5-4.1,2.7-4.9,6.3s-4.4,26.1-12.6,35.4
	c-3.6,4-19.4,7.2-36.9,8.7V37.6c1,0.4,2,1,2.8,1.7l0,0c1.5,1.1,3.5,1.2,5.2,0.3c0,1.6-0.3,3.3-0.8,4.8l0,0c1.3,2.7,2.1,5.7,2.3,8.7
	c1.2,11.1,10.8,17.6,4.5,19c1.6,2.5,1.5,5.1,0.5,5.4c2.4,2-2.1,4.2-0.7,5.9s1.8,11.2-9.4,8.4c2.2,6.2,0.4,8.9,7,7.2
	c10.2-5.9,20-15.3,35.3-9.1c3.2,0.3,5.7,0.4,5.7,0.4s6.9-11.2,21.5-5.7c1.3-13.2-1.6-24.7-5-30.2c-1.7-2-2.3-4.4-6.8-0.9
	s-3.5,2.6-5.4,2.7c-0.6,1.8-1.9,5.3-4.6,2.3c-2,1.2-4.8,4.4-6.3-0.9c-1.4,0.7-2.1,2-3.6-0.5c0,0-6.6-13.7,6.6-16.1s25.8-5.5,28.6,0
	s11.7,16.1,15.4,20.3S217.5,96.5,187.5,110.2z"/>
<path class="st2" d="M220.9,121.5l0.2-1.4c-1.2,1.4-3,2.1-4.9,2c-3.6,0-5.6-3-5.6-6.5c0-4.8,3.3-9.1,9-9.1c3.4,0,5.7,1.8,5.7,4.5
	c0,0.2,0,0.3,0,0.5h-3.2v-0.2c0-1.5-1.3-2.3-2.9-2.3c-3.1,0-5.3,2.6-5.3,6.4c0,2.5,0.9,4.1,3.4,4.1c2,0,3.8-1.4,4.3-3.3h-3.3
	l0.4-2.4h6.3l-1.4,7.8L220.9,121.5z"/>
<path class="st2" d="M232.5,120.1c-0.8,1-2,1.6-3.3,1.5c-2.1,0-3.4-1.2-3.4-3.1c0-0.3,0-0.6,0.1-0.8l1.3-7h3l-1.2,6.6
	c-0.1,0.2-0.1,0.5-0.1,0.8c0,1,0.6,1.3,1.6,1.3c1.2,0.1,2.4-0.8,2.6-2l1.2-6.6h3l-2,11.1c-0.5,2.9-3.1,4.9-6,4.8
	c-2.8,0-4.2-1.3-4.2-3.5c0-0.4,0-0.7,0.1-1.1h2.7c0,0.2-0.1,0.4-0.1,0.6c0,1,0.7,1.5,2,1.5c1.3-0.1,2.3-1.1,2.4-2.3L232.5,120.1z"/>
<path class="st2" d="M250,121.5l1.2-6.6c0-0.2,0.1-0.5,0.1-0.7c0-1.1-0.6-1.5-1.4-1.5c-1.2,0.1-2.2,1.1-2.3,2.3l-1.2,6.5h-3l1.2-6.5
	c0.1-0.4,0.1-0.8,0.1-1.1c0-0.9-0.5-1.1-1.5-1.1c-1.2,0-1.9,0.7-2.2,2.1l-1.2,6.6h-2.9l2-10.8h2.8l-0.3,1.6c0.8-1.2,2.1-1.9,3.6-1.9
	c1.2-0.2,2.4,0.6,2.8,1.7c0.7-1.1,2-1.8,3.3-1.7c1.6-0.2,3,1,3.2,2.6c0,0.1,0,0.3,0,0.4c0,0.2,0,0.4-0.1,0.7l-1.4,7.5L250,121.5z"/>
<path class="st2" d="M271.9,121.5l1.8-10l-4.6,10H266l-1-10l-1.8,10h-2.9l2.6-14.6h4.5l0.8,10.7l4.7-10.7h4.6l-2.6,14.6H271.9z"/>
<path class="st2" d="M283.5,121.5c0-0.2,0-0.3,0-0.5c0-0.2,0-0.3,0-0.5c-1,0.8-2.3,1.3-3.6,1.2c-2.2,0-3.2-1-3.2-2.5
	c0-3.2,2.3-3.9,5.9-4.4c2-0.3,2.1-0.6,2.1-1.2c0-0.9-0.6-1.1-1.7-1.1c-1.1-0.1-2.1,0.6-2.3,1.6h-2.7c0.5-2.2,2-3.8,5.6-3.8
	c3,0,4.1,1.1,4.1,3c0,0.4,0,0.8-0.1,1.2l-1.2,6.8L283.5,121.5z M284.2,116.2c-0.6,0.4-1.3,0.6-2,0.6c-2.1,0.4-2.5,0.9-2.5,1.9
	c0,0.7,0.5,1,1.3,1c1.4,0,2.6-1,3-2.3L284.2,116.2z"/>
<path class="st2" d="M295.1,121.5l1.2-6.6c0.1-0.3,0.1-0.6,0.1-0.9c0-1-0.5-1.2-1.6-1.2c-1.4-0.1-2.7,1-2.7,2.5c0,0,0,0,0,0
	l-1.1,6.2H288l2-10.8h2.8l-0.3,1.6c0.9-1.2,2.4-2,4-1.9c1.9,0,3.1,1,3.1,2.8c0,0.3,0,0.6-0.1,0.8l-1.4,7.5L295.1,121.5z"/>
<path class="st2" d="M306.8,121.5c0-0.2,0-0.3,0-0.5c0-0.2,0-0.3,0-0.5c-1,0.8-2.3,1.3-3.6,1.2c-2.2,0-3.2-1-3.2-2.5
	c0-3.2,2.3-3.9,5.9-4.4c2-0.3,2.1-0.6,2.1-1.2c0-0.9-0.6-1.1-1.7-1.1c-1.1-0.1-2,0.6-2.3,1.6h-2.7c0.5-2.2,2-3.8,5.6-3.8
	c3,0,4.1,1.1,4.1,3c0,0.4,0,0.8-0.1,1.2l-1.2,6.8L306.8,121.5z M307.5,116.2c-0.6,0.4-1.3,0.6-2,0.6c-2.1,0.4-2.5,0.9-2.5,1.9
	c0,0.7,0.5,1,1.3,1c1.4,0,2.6-1,3-2.3L307.5,116.2z"/>
<path class="st2" d="M319.3,120.1c-0.8,1-2,1.6-3.4,1.5c-3,0-4.1-2-4.1-4.3c0-4.1,3-6.9,6-6.9c1.2-0.1,2.3,0.5,2.8,1.6l0.2-1.3h3
	l-2,10.9c-0.6,3.3-3.4,5-6.5,5c-2.8,0-4.7-1.4-4.7-3.7c0-0.3,0-0.6,0.1-0.8h2.8c0,0.1,0,0.3,0,0.4c0,1.2,0.8,1.7,2.1,1.7
	c1.5,0.1,2.9-0.9,3.2-2.3L319.3,120.1z M320.2,115.3c0-1.7-0.7-2.4-2-2.4c-2.1,0-3.2,1.7-3.2,4c0,1.8,0.8,2.5,2,2.5
	C318.6,119.4,320.2,117.9,320.2,115.3z"/>
<path class="st2" d="M327.2,116.8v0.5c0,1.5,0.8,2.2,2,2.2c0.9,0,1.8-0.4,2.2-1.2h3c-1,2.1-3.2,3.5-5.5,3.5c-3.1,0-4.7-1.5-4.7-4.5
	c0-4.2,2.6-6.9,6.6-6.9c2.8,0,4.3,1.4,4.3,4.3c0,0.7-0.1,1.4-0.2,2.1H327.2z M332.2,115c0-0.2,0-0.4,0-0.7c0-1.4-0.9-1.7-1.9-1.7
	c-1.4,0.1-2.5,1-2.8,2.4H332.2z"/>
<path class="st2" d="M348.6,121.5l1.2-6.6c0-0.2,0.1-0.5,0.1-0.7c0-1.1-0.6-1.5-1.4-1.5c-1.2,0.1-2.2,1.1-2.3,2.3l-1.2,6.5h-3
	l1.2-6.5c0.1-0.4,0.1-0.8,0.1-1.1c0-0.9-0.5-1.1-1.5-1.1c-1.2,0-1.9,0.7-2.2,2.1l-1.2,6.6h-2.9l2-10.8h2.8l-0.3,1.6
	c0.8-1.2,2.1-1.9,3.6-1.9c1.2-0.2,2.4,0.6,2.8,1.7c0.7-1.1,2-1.7,3.3-1.7c1.6-0.2,3,1,3.2,2.6c0,0.1,0,0.3,0,0.4
	c0,0.2,0,0.4-0.1,0.7l-1.4,7.5L348.6,121.5z"/>
<path class="st2" d="M356.5,116.8v0.5c0,1.5,0.8,2.2,2,2.2c0.9,0.1,1.8-0.4,2.2-1.2h3c-1,2.1-3.2,3.5-5.5,3.5
	c-3.1,0-4.7-1.5-4.7-4.5c0-4.2,2.6-6.9,6.6-6.9c2.8,0,4.3,1.4,4.3,4.3c0,0.7-0.1,1.4-0.2,2.1H356.5z M361.5,115c0-0.2,0.1-0.4,0-0.7
	c0-1.4-0.9-1.7-1.9-1.7c-1.4,0.1-2.5,1-2.8,2.4H361.5z"/>
<path class="st2" d="M372,121.5l1.2-6.6c0.1-0.3,0.1-0.6,0.1-0.9c0-1-0.5-1.2-1.6-1.2c-1.4-0.1-2.7,1-2.7,2.5c0,0,0,0,0,0l-1.1,6.2
	h-3l2-10.8h2.8l-0.3,1.6c0.9-1.3,2.4-2,3.9-1.9c1.9,0,3.1,1,3.1,2.8c0,0.3,0,0.6-0.1,0.8l-1.4,7.5L372,121.5z"/>
<path class="st2" d="M386.5,117.5c-0.4,2.6-2.7,4.5-5.3,4.3c-2.8,0-3.9-1.4-3.9-3.3c0-0.3,0-0.7,0.1-1l1.7-9.7h2.9l-0.5,2.9h6.2
	l-0.4,2h-6.2l-0.8,4.4c-0.1,0.3-0.1,0.6-0.1,0.8c0,1,0.5,1.3,1.4,1.3c1.1,0,1.9-0.8,2.1-2.1l0.5-2.8h2.7L386.5,117.5z"/>
<path class="st2" d="M403.6,111.2c0-0.1,0-0.2,0-0.4c0-1.5-0.9-1.9-2.6-1.9c-2,0-3,0.7-3,2c0,0.7,0.6,1.3,2,1.6
	c1.4,0.3,2.9,0.7,4.2,1.3c1.2,0.5,1.9,1.6,1.8,2.9c0,3.5-3.2,5.3-6.6,5.3c-3.9,0-5.9-1.4-5.9-4c0-0.3,0-0.6,0.1-0.9h3
	c0,0.2,0,0.3,0,0.5c0,1.4,1.2,1.9,2.9,1.9c2.2,0,3.4-0.9,3.4-2.3c0-0.7-0.5-1.3-2-1.7c-4.1-0.8-5.9-1.6-5.9-4.1
	c0-2.8,2.2-5.1,6.4-5.1c3.3,0,5.2,1.6,5.2,4c0,0.2,0,0.5,0,0.8L403.6,111.2z"/>
<path class="st2" d="M413.8,120.1c-0.8,1-2,1.6-3.3,1.5c-2.1,0-3.4-1.2-3.4-3.1c0-0.3,0-0.6,0.1-0.8l1.3-7h2.9l-1.2,6.6
	c-0.1,0.2-0.1,0.5-0.1,0.8c0,1,0.6,1.3,1.6,1.3c1.2,0.1,2.4-0.8,2.6-2l1.2-6.6h2.9l-2,11.1c-0.6,2.9-3.1,4.9-6,4.8
	c-2.8,0-4.2-1.3-4.2-3.5c0-0.4,0-0.7,0.1-1.1h2.7c0,0.2,0,0.4,0,0.6c0,1,0.6,1.5,2,1.5c1.3-0.1,2.3-1.1,2.5-2.3L413.8,120.1z"/>
<path class="st2" d="M426.3,114c0-1.1-0.4-1.4-1.7-1.4s-2,0.3-2,1c0,0.5,0.6,0.8,1.6,1.1c3.2,0.9,4.6,1,4.6,3.3
	c0,2.2-2.1,3.8-5.6,3.8c-2.9,0-4.7-1.2-4.7-3.2c0-0.2,0-0.4,0-0.6h3c0,0.1,0,0.2,0,0.3c0,0.9,0.8,1.3,2,1.3s2.2-0.4,2.2-1.2
	c0-0.6-0.5-0.9-1.6-1.1c-3.5-0.8-4.5-1.7-4.5-3.6c0-1.6,1.5-3.3,5.4-3.3c2.9,0,4.1,1.1,4.1,3c0,0.2,0,0.4,0,0.6L426.3,114z"/>
<path class="st2" d="M439,117.5c-0.4,2.6-2.7,4.5-5.3,4.3c-2.8,0-3.9-1.4-3.9-3.3c0-0.3,0-0.7,0.1-1l1.7-9.7h2.9l-0.5,2.9h6.2
	l-0.4,2h-6.2l-0.8,4.4c-0.1,0.3-0.1,0.6-0.1,0.8c0,1,0.5,1.3,1.4,1.3c1.1,0,1.9-0.8,2.1-2.1l0.5-2.8h2.8L439,117.5z"/>
<path class="st2" d="M443.5,116.8v0.5c0,1.5,0.7,2.2,2,2.2c0.9,0,1.8-0.4,2.2-1.2h3c-1,2.1-3.2,3.5-5.5,3.5c-3.1,0-4.7-1.5-4.7-4.5
	c0-4.2,2.6-6.9,6.6-6.9c2.8,0,4.3,1.4,4.3,4.3c0,0.7-0.1,1.4-0.2,2.1H443.5z M448.5,115c0-0.2,0.1-0.4,0-0.7c0-1.4-0.9-1.7-1.9-1.7
	c-1.4,0.1-2.5,1-2.8,2.4H448.5z"/>
<path class="st2" d="M464.8,121.5l1.2-6.6c0-0.2,0.1-0.5,0.1-0.7c0-1.1-0.6-1.5-1.4-1.5c-1.2,0.1-2.2,1.1-2.3,2.3l-1.2,6.5h-2.9
	l1.2-6.5c0.1-0.4,0.1-0.8,0.1-1.1c0-0.9-0.5-1.1-1.5-1.1c-1.2,0-1.9,0.7-2.2,2.1l-1.2,6.6h-3l2-10.8h2.8l-0.3,1.6
	c0.8-1.2,2.2-2,3.6-1.9c1.2-0.2,2.4,0.6,2.8,1.7c0.7-1.1,2-1.8,3.3-1.7c1.6-0.2,3,1,3.2,2.6c0,0.1,0,0.2,0,0.4c0,0.2,0,0.4-0.1,0.7
	l-1.4,7.5L464.8,121.5z"/>
<path class="st1" d="M238,100c-3.2,1-6.6,1.6-9.9,1.6c-5.7,0-9.7-1.6-12.7-4.5c-4.2-4-6.2-10.8-6-18.4c0.3-16,9.8-23.1,20.1-23.1
	c2.7-0.1,5.3,0.4,7.8,1.4l-1.7,8.9c-1.6-0.7-3.4-1.1-5.1-1c-6.1,0-10.3,4-10.3,14.7c0,9.5,3.8,13.2,7.2,13.2c0.4,0,0.8,0,1.1-0.1
	v-9.2h-3.3v-8.4H238L238,100z"/>
<path class="st1" d="M248.8,101.2V84.8l-9.9-28.7h11l2.8,10.5c0.7,2.8,1.4,6.1,2,9.3h0c0.4-3.2,0.9-6.4,1.6-9.5l2.1-10.3h10.8
	l-10,28.3v16.9L248.8,101.2z"/>
<path class="st1" d="M299.3,87c-0.2-3.6-0.5-9-0.4-13.8h-0.1c-0.7,4.8-2,10.4-2.5,13.1l-3.2,13.9h-7.5l-3.1-13.9
	c-0.6-2.8-1.7-8.4-2.4-13.1h-0.1c-0.2,4.8-0.5,10.2-0.7,13.8l-0.7,14.2h-8.8l3.5-45.2H284l2.9,14.5c1.1,5.6,2.3,10.8,3,15.9h0.1
	c0.6-4.9,1.6-10.4,2.7-15.9l3-14.5h10.8l2.8,45.2h-9.2L299.3,87z"/>
<path class="st1" d="M323.2,92.3l-1.6,8.9h-10l9.6-45.2h12.6l8.2,45.2h-10l-1.5-8.9H323.2z M329.7,84.3l-1.1-8.6
	c-0.3-2.5-0.9-7.4-1.3-10.2h-0.1c-0.5,2.9-1.1,7.9-1.5,10.3l-1.3,8.6L329.7,84.3z"/>
<path class="st1" d="M346.6,101.2V56.1h9.5l6.4,16.2c1.1,2.9,3.3,8.6,4.4,12.1h0.1c-0.3-3.7-1-12.5-1-21v-7.3h9v45.2h-9.4L359.5,86
	c-1.7-4.2-3.1-8.5-4.3-12.8h-0.1c0.2,3.9,0.6,11.4,0.6,20.2v7.8L346.6,101.2z"/>
<path class="st1" d="M390.6,92.3l-1.5,8.9H379l9.6-45.2h12.6l8.2,45.2h-10.1l-1.5-8.9H390.6z M397.1,84.3l-1.1-8.6
	c-0.4-2.5-1-7.3-1.4-10.2h-0.1c-0.5,2.8-1.1,7.8-1.5,10.2l-1.3,8.6L397.1,84.3z"/>
<path class="st1" d="M439.3,100c-3.2,1-6.6,1.6-9.9,1.6c-5.7,0-9.7-1.6-12.7-4.5c-4.1-4-6.2-10.8-6-18.4c0.3-16,9.8-23.1,20.1-23.1
	c2.7-0.1,5.3,0.4,7.8,1.4l-1.7,8.9c-1.6-0.7-3.4-1.1-5.2-1c-6.1,0-10.2,4-10.2,14.7c0,9.5,3.8,13.2,7.2,13.2c0.4,0,0.8,0,1.1-0.1
	v-9.2h-3.3v-8.4h12.7L439.3,100z"/>
<path class="st1" d="M466,82.1h-9.8v10.2h11v9h-21.4V56.1h20.7v9h-10.3v8.4h9.8V82.1z"/>
</svg>
